<mxfile host="Electron" modified="2023-11-29T23:06:02.407Z" agent="Mozilla/5.0 (Windows NT 10.0; Win64; x64) AppleWebKit/537.36 (KHTML, like Gecko) draw.io/22.1.2 Chrome/114.0.5735.289 Electron/25.9.4 Safari/537.36" etag="C6EXxrnCSzk1dC2GMWrk" version="22.1.2" type="device">
  <diagram id="C5RBs43oDa-KdzZeNtuy" name="Page-1">
    <mxGraphModel dx="5610" dy="1347" grid="1" gridSize="10" guides="1" tooltips="1" connect="1" arrows="1" fold="1" page="1" pageScale="1" pageWidth="827" pageHeight="1169" math="0" shadow="0">
      <root>
        <mxCell id="WIyWlLk6GJQsqaUBKTNV-0" />
        <mxCell id="WIyWlLk6GJQsqaUBKTNV-1" parent="WIyWlLk6GJQsqaUBKTNV-0" />
        <mxCell id="0NNiQZoct2HIyenWik7f-34" style="edgeStyle=orthogonalEdgeStyle;rounded=0;orthogonalLoop=1;jettySize=auto;html=1;exitX=0.5;exitY=1;exitDx=0;exitDy=0;" edge="1" parent="WIyWlLk6GJQsqaUBKTNV-1" source="0NNiQZoct2HIyenWik7f-0" target="0NNiQZoct2HIyenWik7f-33">
          <mxGeometry relative="1" as="geometry" />
        </mxCell>
        <mxCell id="0NNiQZoct2HIyenWik7f-0" value="start" style="ellipse;whiteSpace=wrap;html=1;" vertex="1" parent="WIyWlLk6GJQsqaUBKTNV-1">
          <mxGeometry x="354" y="30" width="120" height="80" as="geometry" />
        </mxCell>
        <mxCell id="0NNiQZoct2HIyenWik7f-3" style="edgeStyle=orthogonalEdgeStyle;rounded=0;orthogonalLoop=1;jettySize=auto;html=1;exitX=0.5;exitY=1;exitDx=0;exitDy=0;entryX=0.5;entryY=0;entryDx=0;entryDy=0;" edge="1" parent="WIyWlLk6GJQsqaUBKTNV-1" source="0NNiQZoct2HIyenWik7f-1" target="0NNiQZoct2HIyenWik7f-2">
          <mxGeometry relative="1" as="geometry" />
        </mxCell>
        <mxCell id="0NNiQZoct2HIyenWik7f-1" value="reverseArr(int arr[], int lenghth)" style="rounded=0;whiteSpace=wrap;html=1;" vertex="1" parent="WIyWlLk6GJQsqaUBKTNV-1">
          <mxGeometry x="810" y="40" width="120" height="60" as="geometry" />
        </mxCell>
        <mxCell id="0NNiQZoct2HIyenWik7f-5" style="edgeStyle=orthogonalEdgeStyle;rounded=0;orthogonalLoop=1;jettySize=auto;html=1;exitX=0.5;exitY=1;exitDx=0;exitDy=0;entryX=0.5;entryY=0;entryDx=0;entryDy=0;" edge="1" parent="WIyWlLk6GJQsqaUBKTNV-1" source="0NNiQZoct2HIyenWik7f-2" target="0NNiQZoct2HIyenWik7f-4">
          <mxGeometry relative="1" as="geometry" />
        </mxCell>
        <mxCell id="0NNiQZoct2HIyenWik7f-2" value="size , swap&lt;br&gt;i=0" style="rounded=0;whiteSpace=wrap;html=1;" vertex="1" parent="WIyWlLk6GJQsqaUBKTNV-1">
          <mxGeometry x="810" y="140" width="120" height="60" as="geometry" />
        </mxCell>
        <mxCell id="0NNiQZoct2HIyenWik7f-7" style="edgeStyle=orthogonalEdgeStyle;rounded=0;orthogonalLoop=1;jettySize=auto;html=1;exitX=0.5;exitY=1;exitDx=0;exitDy=0;entryX=0.5;entryY=0;entryDx=0;entryDy=0;" edge="1" parent="WIyWlLk6GJQsqaUBKTNV-1" source="0NNiQZoct2HIyenWik7f-4" target="0NNiQZoct2HIyenWik7f-6">
          <mxGeometry relative="1" as="geometry" />
        </mxCell>
        <mxCell id="0NNiQZoct2HIyenWik7f-4" value="i&amp;lt;lenghth/2?" style="rhombus;whiteSpace=wrap;html=1;" vertex="1" parent="WIyWlLk6GJQsqaUBKTNV-1">
          <mxGeometry x="830" y="240" width="80" height="80" as="geometry" />
        </mxCell>
        <mxCell id="0NNiQZoct2HIyenWik7f-9" style="edgeStyle=orthogonalEdgeStyle;rounded=0;orthogonalLoop=1;jettySize=auto;html=1;exitX=0.5;exitY=1;exitDx=0;exitDy=0;" edge="1" parent="WIyWlLk6GJQsqaUBKTNV-1" source="0NNiQZoct2HIyenWik7f-6" target="0NNiQZoct2HIyenWik7f-8">
          <mxGeometry relative="1" as="geometry" />
        </mxCell>
        <mxCell id="0NNiQZoct2HIyenWik7f-6" value="size = lenghth - i - 1&lt;br&gt;swap = arr[i]&lt;br&gt;arr[i] = arr[size]&lt;br&gt;arr[size] = swap" style="rounded=0;whiteSpace=wrap;html=1;" vertex="1" parent="WIyWlLk6GJQsqaUBKTNV-1">
          <mxGeometry x="810" y="360" width="120" height="60" as="geometry" />
        </mxCell>
        <mxCell id="0NNiQZoct2HIyenWik7f-10" style="edgeStyle=orthogonalEdgeStyle;rounded=0;orthogonalLoop=1;jettySize=auto;html=1;exitX=0;exitY=0.5;exitDx=0;exitDy=0;entryX=0;entryY=0.5;entryDx=0;entryDy=0;" edge="1" parent="WIyWlLk6GJQsqaUBKTNV-1" source="0NNiQZoct2HIyenWik7f-8" target="0NNiQZoct2HIyenWik7f-4">
          <mxGeometry relative="1" as="geometry" />
        </mxCell>
        <mxCell id="0NNiQZoct2HIyenWik7f-8" value="i++" style="rounded=0;whiteSpace=wrap;html=1;" vertex="1" parent="WIyWlLk6GJQsqaUBKTNV-1">
          <mxGeometry x="810" y="460" width="120" height="60" as="geometry" />
        </mxCell>
        <mxCell id="0NNiQZoct2HIyenWik7f-13" style="edgeStyle=orthogonalEdgeStyle;rounded=0;orthogonalLoop=1;jettySize=auto;html=1;exitX=0.5;exitY=1;exitDx=0;exitDy=0;" edge="1" parent="WIyWlLk6GJQsqaUBKTNV-1" source="0NNiQZoct2HIyenWik7f-12">
          <mxGeometry relative="1" as="geometry">
            <mxPoint x="1190" y="140" as="targetPoint" />
          </mxGeometry>
        </mxCell>
        <mxCell id="0NNiQZoct2HIyenWik7f-12" value="searchValue&amp;nbsp; (int arr[], int lenghth,int findValue)" style="rounded=0;whiteSpace=wrap;html=1;" vertex="1" parent="WIyWlLk6GJQsqaUBKTNV-1">
          <mxGeometry x="1130" y="40" width="120" height="60" as="geometry" />
        </mxCell>
        <mxCell id="0NNiQZoct2HIyenWik7f-16" style="edgeStyle=orthogonalEdgeStyle;rounded=0;orthogonalLoop=1;jettySize=auto;html=1;exitX=0.5;exitY=1;exitDx=0;exitDy=0;entryX=0.5;entryY=0;entryDx=0;entryDy=0;" edge="1" parent="WIyWlLk6GJQsqaUBKTNV-1" source="0NNiQZoct2HIyenWik7f-14" target="0NNiQZoct2HIyenWik7f-15">
          <mxGeometry relative="1" as="geometry" />
        </mxCell>
        <mxCell id="0NNiQZoct2HIyenWik7f-14" value="i = 0" style="rounded=0;whiteSpace=wrap;html=1;" vertex="1" parent="WIyWlLk6GJQsqaUBKTNV-1">
          <mxGeometry x="1140" y="140" width="120" height="60" as="geometry" />
        </mxCell>
        <mxCell id="0NNiQZoct2HIyenWik7f-18" style="edgeStyle=orthogonalEdgeStyle;rounded=0;orthogonalLoop=1;jettySize=auto;html=1;exitX=0.5;exitY=1;exitDx=0;exitDy=0;entryX=0.5;entryY=0;entryDx=0;entryDy=0;" edge="1" parent="WIyWlLk6GJQsqaUBKTNV-1" source="0NNiQZoct2HIyenWik7f-15" target="0NNiQZoct2HIyenWik7f-17">
          <mxGeometry relative="1" as="geometry" />
        </mxCell>
        <mxCell id="0NNiQZoct2HIyenWik7f-28" style="edgeStyle=orthogonalEdgeStyle;rounded=0;orthogonalLoop=1;jettySize=auto;html=1;exitX=1;exitY=0.5;exitDx=0;exitDy=0;" edge="1" parent="WIyWlLk6GJQsqaUBKTNV-1" source="0NNiQZoct2HIyenWik7f-15">
          <mxGeometry relative="1" as="geometry">
            <mxPoint x="1370" y="280" as="targetPoint" />
          </mxGeometry>
        </mxCell>
        <mxCell id="0NNiQZoct2HIyenWik7f-15" value="i&amp;lt;lenghth?" style="rhombus;whiteSpace=wrap;html=1;" vertex="1" parent="WIyWlLk6GJQsqaUBKTNV-1">
          <mxGeometry x="1160" y="240" width="80" height="80" as="geometry" />
        </mxCell>
        <mxCell id="0NNiQZoct2HIyenWik7f-19" style="edgeStyle=orthogonalEdgeStyle;rounded=0;orthogonalLoop=1;jettySize=auto;html=1;exitX=0.5;exitY=1;exitDx=0;exitDy=0;" edge="1" parent="WIyWlLk6GJQsqaUBKTNV-1" source="0NNiQZoct2HIyenWik7f-17">
          <mxGeometry relative="1" as="geometry">
            <mxPoint x="1201" y="460" as="targetPoint" />
          </mxGeometry>
        </mxCell>
        <mxCell id="0NNiQZoct2HIyenWik7f-26" style="edgeStyle=orthogonalEdgeStyle;rounded=0;orthogonalLoop=1;jettySize=auto;html=1;exitX=0;exitY=0.5;exitDx=0;exitDy=0;" edge="1" parent="WIyWlLk6GJQsqaUBKTNV-1" source="0NNiQZoct2HIyenWik7f-17">
          <mxGeometry relative="1" as="geometry">
            <mxPoint x="1110" y="390" as="targetPoint" />
          </mxGeometry>
        </mxCell>
        <mxCell id="0NNiQZoct2HIyenWik7f-17" value="arr[i] == findValue?" style="rhombus;whiteSpace=wrap;html=1;" vertex="1" parent="WIyWlLk6GJQsqaUBKTNV-1">
          <mxGeometry x="1161" y="350" width="80" height="80" as="geometry" />
        </mxCell>
        <mxCell id="0NNiQZoct2HIyenWik7f-32" style="edgeStyle=orthogonalEdgeStyle;rounded=0;orthogonalLoop=1;jettySize=auto;html=1;exitX=1;exitY=0.5;exitDx=0;exitDy=0;" edge="1" parent="WIyWlLk6GJQsqaUBKTNV-1" source="0NNiQZoct2HIyenWik7f-20">
          <mxGeometry relative="1" as="geometry">
            <mxPoint x="1320" y="280" as="targetPoint" />
          </mxGeometry>
        </mxCell>
        <mxCell id="0NNiQZoct2HIyenWik7f-20" value="return i" style="rounded=0;whiteSpace=wrap;html=1;" vertex="1" parent="WIyWlLk6GJQsqaUBKTNV-1">
          <mxGeometry x="1150" y="460" width="120" height="60" as="geometry" />
        </mxCell>
        <mxCell id="0NNiQZoct2HIyenWik7f-23" value="false" style="text;html=1;align=center;verticalAlign=middle;resizable=0;points=[];autosize=1;strokeColor=none;fillColor=none;" vertex="1" parent="WIyWlLk6GJQsqaUBKTNV-1">
          <mxGeometry x="1120" y="358" width="50" height="30" as="geometry" />
        </mxCell>
        <mxCell id="0NNiQZoct2HIyenWik7f-27" style="edgeStyle=orthogonalEdgeStyle;rounded=0;orthogonalLoop=1;jettySize=auto;html=1;exitX=0.5;exitY=0;exitDx=0;exitDy=0;entryX=0;entryY=0.5;entryDx=0;entryDy=0;" edge="1" parent="WIyWlLk6GJQsqaUBKTNV-1" source="0NNiQZoct2HIyenWik7f-25" target="0NNiQZoct2HIyenWik7f-15">
          <mxGeometry relative="1" as="geometry" />
        </mxCell>
        <mxCell id="0NNiQZoct2HIyenWik7f-25" value="i++" style="rounded=0;whiteSpace=wrap;html=1;" vertex="1" parent="WIyWlLk6GJQsqaUBKTNV-1">
          <mxGeometry x="990" y="358" width="120" height="60" as="geometry" />
        </mxCell>
        <mxCell id="0NNiQZoct2HIyenWik7f-29" value="false" style="text;html=1;align=center;verticalAlign=middle;resizable=0;points=[];autosize=1;strokeColor=none;fillColor=none;" vertex="1" parent="WIyWlLk6GJQsqaUBKTNV-1">
          <mxGeometry x="1255" y="248" width="50" height="30" as="geometry" />
        </mxCell>
        <mxCell id="0NNiQZoct2HIyenWik7f-30" value="true" style="text;html=1;align=center;verticalAlign=middle;resizable=0;points=[];autosize=1;strokeColor=none;fillColor=none;" vertex="1" parent="WIyWlLk6GJQsqaUBKTNV-1">
          <mxGeometry x="1190" y="318" width="40" height="30" as="geometry" />
        </mxCell>
        <mxCell id="0NNiQZoct2HIyenWik7f-31" value="true" style="text;html=1;align=center;verticalAlign=middle;resizable=0;points=[];autosize=1;strokeColor=none;fillColor=none;" vertex="1" parent="WIyWlLk6GJQsqaUBKTNV-1">
          <mxGeometry x="1200" y="428" width="40" height="30" as="geometry" />
        </mxCell>
        <mxCell id="0NNiQZoct2HIyenWik7f-36" style="edgeStyle=orthogonalEdgeStyle;rounded=0;orthogonalLoop=1;jettySize=auto;html=1;exitX=0.5;exitY=1;exitDx=0;exitDy=0;entryX=0.5;entryY=0;entryDx=0;entryDy=0;" edge="1" parent="WIyWlLk6GJQsqaUBKTNV-1" source="0NNiQZoct2HIyenWik7f-33" target="0NNiQZoct2HIyenWik7f-35">
          <mxGeometry relative="1" as="geometry" />
        </mxCell>
        <mxCell id="0NNiQZoct2HIyenWik7f-33" value="findValue, swap,&lt;br&gt;arr[100]&lt;br&gt;currentIndex = 0&lt;br&gt;currentIndex1 = 0&lt;br&gt;arr1[100]&lt;br&gt;arr2[100]&lt;br&gt;n" style="rounded=0;whiteSpace=wrap;html=1;" vertex="1" parent="WIyWlLk6GJQsqaUBKTNV-1">
          <mxGeometry x="354" y="150" width="120" height="100" as="geometry" />
        </mxCell>
        <mxCell id="0NNiQZoct2HIyenWik7f-39" style="edgeStyle=orthogonalEdgeStyle;rounded=0;orthogonalLoop=1;jettySize=auto;html=1;exitX=0.5;exitY=1;exitDx=0;exitDy=0;entryX=0.5;entryY=0;entryDx=0;entryDy=0;" edge="1" parent="WIyWlLk6GJQsqaUBKTNV-1" source="0NNiQZoct2HIyenWik7f-35" target="0NNiQZoct2HIyenWik7f-37">
          <mxGeometry relative="1" as="geometry" />
        </mxCell>
        <mxCell id="0NNiQZoct2HIyenWik7f-35" value="do" style="rounded=0;whiteSpace=wrap;html=1;" vertex="1" parent="WIyWlLk6GJQsqaUBKTNV-1">
          <mxGeometry x="354" y="288" width="120" height="60" as="geometry" />
        </mxCell>
        <mxCell id="0NNiQZoct2HIyenWik7f-41" style="edgeStyle=orthogonalEdgeStyle;rounded=0;orthogonalLoop=1;jettySize=auto;html=1;exitX=0.5;exitY=1;exitDx=0;exitDy=0;entryX=0.5;entryY=0;entryDx=0;entryDy=0;" edge="1" parent="WIyWlLk6GJQsqaUBKTNV-1" source="0NNiQZoct2HIyenWik7f-37">
          <mxGeometry relative="1" as="geometry">
            <mxPoint x="414" y="500" as="targetPoint" />
          </mxGeometry>
        </mxCell>
        <mxCell id="0NNiQZoct2HIyenWik7f-37" value="menu" style="shape=parallelogram;perimeter=parallelogramPerimeter;whiteSpace=wrap;html=1;fixedSize=1;" vertex="1" parent="WIyWlLk6GJQsqaUBKTNV-1">
          <mxGeometry x="354" y="398" width="120" height="60" as="geometry" />
        </mxCell>
        <mxCell id="0NNiQZoct2HIyenWik7f-44" style="edgeStyle=orthogonalEdgeStyle;rounded=0;orthogonalLoop=1;jettySize=auto;html=1;exitX=0;exitY=0.5;exitDx=0;exitDy=0;" edge="1" parent="WIyWlLk6GJQsqaUBKTNV-1" source="0NNiQZoct2HIyenWik7f-42" target="0NNiQZoct2HIyenWik7f-43">
          <mxGeometry relative="1" as="geometry" />
        </mxCell>
        <mxCell id="0NNiQZoct2HIyenWik7f-42" value="choice" style="shape=parallelogram;perimeter=parallelogramPerimeter;whiteSpace=wrap;html=1;fixedSize=1;" vertex="1" parent="WIyWlLk6GJQsqaUBKTNV-1">
          <mxGeometry x="354" y="500" width="120" height="60" as="geometry" />
        </mxCell>
        <mxCell id="0NNiQZoct2HIyenWik7f-57" value="true" style="edgeStyle=orthogonalEdgeStyle;rounded=0;orthogonalLoop=1;jettySize=auto;html=1;exitX=0.5;exitY=1;exitDx=0;exitDy=0;entryX=0.5;entryY=0;entryDx=0;entryDy=0;" edge="1" parent="WIyWlLk6GJQsqaUBKTNV-1" source="0NNiQZoct2HIyenWik7f-43" target="0NNiQZoct2HIyenWik7f-45">
          <mxGeometry relative="1" as="geometry" />
        </mxCell>
        <mxCell id="0NNiQZoct2HIyenWik7f-63" value="false" style="edgeStyle=orthogonalEdgeStyle;rounded=0;orthogonalLoop=1;jettySize=auto;html=1;exitX=0;exitY=0.5;exitDx=0;exitDy=0;" edge="1" parent="WIyWlLk6GJQsqaUBKTNV-1" source="0NNiQZoct2HIyenWik7f-43">
          <mxGeometry relative="1" as="geometry">
            <mxPoint x="-100" y="530" as="targetPoint" />
          </mxGeometry>
        </mxCell>
        <mxCell id="0NNiQZoct2HIyenWik7f-43" value="choice == 1?" style="rhombus;whiteSpace=wrap;html=1;" vertex="1" parent="WIyWlLk6GJQsqaUBKTNV-1">
          <mxGeometry x="170" y="490" width="80" height="80" as="geometry" />
        </mxCell>
        <mxCell id="0NNiQZoct2HIyenWik7f-48" style="edgeStyle=orthogonalEdgeStyle;rounded=0;orthogonalLoop=1;jettySize=auto;html=1;exitX=0.5;exitY=1;exitDx=0;exitDy=0;entryX=0.5;entryY=0;entryDx=0;entryDy=0;" edge="1" parent="WIyWlLk6GJQsqaUBKTNV-1" source="0NNiQZoct2HIyenWik7f-45" target="0NNiQZoct2HIyenWik7f-47">
          <mxGeometry relative="1" as="geometry" />
        </mxCell>
        <mxCell id="0NNiQZoct2HIyenWik7f-45" value="n" style="shape=parallelogram;perimeter=parallelogramPerimeter;whiteSpace=wrap;html=1;fixedSize=1;" vertex="1" parent="WIyWlLk6GJQsqaUBKTNV-1">
          <mxGeometry x="150" y="600" width="120" height="60" as="geometry" />
        </mxCell>
        <mxCell id="0NNiQZoct2HIyenWik7f-50" style="edgeStyle=orthogonalEdgeStyle;rounded=0;orthogonalLoop=1;jettySize=auto;html=1;exitX=0.5;exitY=1;exitDx=0;exitDy=0;entryX=0.5;entryY=0;entryDx=0;entryDy=0;" edge="1" parent="WIyWlLk6GJQsqaUBKTNV-1" source="0NNiQZoct2HIyenWik7f-47" target="0NNiQZoct2HIyenWik7f-49">
          <mxGeometry relative="1" as="geometry" />
        </mxCell>
        <mxCell id="0NNiQZoct2HIyenWik7f-47" value="i = 0" style="rounded=0;whiteSpace=wrap;html=1;" vertex="1" parent="WIyWlLk6GJQsqaUBKTNV-1">
          <mxGeometry x="150" y="690" width="120" height="60" as="geometry" />
        </mxCell>
        <mxCell id="0NNiQZoct2HIyenWik7f-61" style="edgeStyle=orthogonalEdgeStyle;rounded=0;orthogonalLoop=1;jettySize=auto;html=1;exitX=1;exitY=0.5;exitDx=0;exitDy=0;entryX=1;entryY=0.25;entryDx=0;entryDy=0;" edge="1" parent="WIyWlLk6GJQsqaUBKTNV-1" source="0NNiQZoct2HIyenWik7f-49" target="0NNiQZoct2HIyenWik7f-35">
          <mxGeometry relative="1" as="geometry">
            <mxPoint x="520" y="310" as="targetPoint" />
            <Array as="points">
              <mxPoint x="330" y="820" />
              <mxPoint x="330" y="1160" />
              <mxPoint x="520" y="1160" />
              <mxPoint x="520" y="303" />
            </Array>
          </mxGeometry>
        </mxCell>
        <mxCell id="0NNiQZoct2HIyenWik7f-49" value="i&amp;lt;n?" style="rhombus;whiteSpace=wrap;html=1;" vertex="1" parent="WIyWlLk6GJQsqaUBKTNV-1">
          <mxGeometry x="170" y="780" width="80" height="80" as="geometry" />
        </mxCell>
        <mxCell id="0NNiQZoct2HIyenWik7f-51" value="nhap gia tri phan tu" style="shape=parallelogram;perimeter=parallelogramPerimeter;whiteSpace=wrap;html=1;fixedSize=1;" vertex="1" parent="WIyWlLk6GJQsqaUBKTNV-1">
          <mxGeometry x="140" y="900" width="120" height="60" as="geometry" />
        </mxCell>
        <mxCell id="0NNiQZoct2HIyenWik7f-52" value="true" style="edgeStyle=orthogonalEdgeStyle;rounded=0;orthogonalLoop=1;jettySize=auto;html=1;exitX=0.5;exitY=1;exitDx=0;exitDy=0;entryX=0.587;entryY=-0.03;entryDx=0;entryDy=0;entryPerimeter=0;" edge="1" parent="WIyWlLk6GJQsqaUBKTNV-1" source="0NNiQZoct2HIyenWik7f-49" target="0NNiQZoct2HIyenWik7f-51">
          <mxGeometry relative="1" as="geometry" />
        </mxCell>
        <mxCell id="0NNiQZoct2HIyenWik7f-59" style="edgeStyle=orthogonalEdgeStyle;rounded=0;orthogonalLoop=1;jettySize=auto;html=1;exitX=0;exitY=0.5;exitDx=0;exitDy=0;entryX=0;entryY=0.5;entryDx=0;entryDy=0;" edge="1" parent="WIyWlLk6GJQsqaUBKTNV-1" source="0NNiQZoct2HIyenWik7f-53" target="0NNiQZoct2HIyenWik7f-49">
          <mxGeometry relative="1" as="geometry" />
        </mxCell>
        <mxCell id="0NNiQZoct2HIyenWik7f-53" value="i++&lt;br&gt;currentIndex++" style="rounded=0;whiteSpace=wrap;html=1;" vertex="1" parent="WIyWlLk6GJQsqaUBKTNV-1">
          <mxGeometry x="150" y="1000" width="120" height="60" as="geometry" />
        </mxCell>
        <mxCell id="0NNiQZoct2HIyenWik7f-54" style="edgeStyle=orthogonalEdgeStyle;rounded=0;orthogonalLoop=1;jettySize=auto;html=1;exitX=0.5;exitY=1;exitDx=0;exitDy=0;entryX=0.417;entryY=0;entryDx=0;entryDy=0;entryPerimeter=0;" edge="1" parent="WIyWlLk6GJQsqaUBKTNV-1" source="0NNiQZoct2HIyenWik7f-51" target="0NNiQZoct2HIyenWik7f-53">
          <mxGeometry relative="1" as="geometry" />
        </mxCell>
        <mxCell id="0NNiQZoct2HIyenWik7f-62" value="false" style="text;html=1;align=center;verticalAlign=middle;resizable=0;points=[];autosize=1;strokeColor=none;fillColor=none;" vertex="1" parent="WIyWlLk6GJQsqaUBKTNV-1">
          <mxGeometry x="255" y="788" width="50" height="30" as="geometry" />
        </mxCell>
        <mxCell id="0NNiQZoct2HIyenWik7f-66" style="edgeStyle=orthogonalEdgeStyle;rounded=0;orthogonalLoop=1;jettySize=auto;html=1;exitX=0.5;exitY=1;exitDx=0;exitDy=0;entryX=0.5;entryY=0;entryDx=0;entryDy=0;" edge="1" parent="WIyWlLk6GJQsqaUBKTNV-1" source="0NNiQZoct2HIyenWik7f-64" target="0NNiQZoct2HIyenWik7f-65">
          <mxGeometry relative="1" as="geometry" />
        </mxCell>
        <mxCell id="0NNiQZoct2HIyenWik7f-77" style="edgeStyle=orthogonalEdgeStyle;rounded=0;orthogonalLoop=1;jettySize=auto;html=1;exitX=0;exitY=0.5;exitDx=0;exitDy=0;" edge="1" parent="WIyWlLk6GJQsqaUBKTNV-1" source="0NNiQZoct2HIyenWik7f-64">
          <mxGeometry relative="1" as="geometry">
            <mxPoint x="-410" y="530" as="targetPoint" />
          </mxGeometry>
        </mxCell>
        <mxCell id="0NNiQZoct2HIyenWik7f-64" value="choice == 2?" style="rhombus;whiteSpace=wrap;html=1;" vertex="1" parent="WIyWlLk6GJQsqaUBKTNV-1">
          <mxGeometry x="-180" y="490" width="80" height="80" as="geometry" />
        </mxCell>
        <mxCell id="0NNiQZoct2HIyenWik7f-68" style="edgeStyle=orthogonalEdgeStyle;rounded=0;orthogonalLoop=1;jettySize=auto;html=1;exitX=0.5;exitY=1;exitDx=0;exitDy=0;entryX=0.5;entryY=0;entryDx=0;entryDy=0;" edge="1" parent="WIyWlLk6GJQsqaUBKTNV-1" source="0NNiQZoct2HIyenWik7f-65" target="0NNiQZoct2HIyenWik7f-67">
          <mxGeometry relative="1" as="geometry" />
        </mxCell>
        <mxCell id="0NNiQZoct2HIyenWik7f-65" value="i = 0" style="rounded=0;whiteSpace=wrap;html=1;" vertex="1" parent="WIyWlLk6GJQsqaUBKTNV-1">
          <mxGeometry x="-200" y="585" width="120" height="60" as="geometry" />
        </mxCell>
        <mxCell id="0NNiQZoct2HIyenWik7f-69" value="true" style="edgeStyle=orthogonalEdgeStyle;rounded=0;orthogonalLoop=1;jettySize=auto;html=1;exitX=0.5;exitY=1;exitDx=0;exitDy=0;" edge="1" parent="WIyWlLk6GJQsqaUBKTNV-1" source="0NNiQZoct2HIyenWik7f-67">
          <mxGeometry relative="1" as="geometry">
            <mxPoint x="-140" y="800" as="targetPoint" />
          </mxGeometry>
        </mxCell>
        <mxCell id="0NNiQZoct2HIyenWik7f-74" style="edgeStyle=orthogonalEdgeStyle;rounded=0;orthogonalLoop=1;jettySize=auto;html=1;exitX=1;exitY=0.5;exitDx=0;exitDy=0;" edge="1" parent="WIyWlLk6GJQsqaUBKTNV-1" source="0NNiQZoct2HIyenWik7f-67">
          <mxGeometry relative="1" as="geometry">
            <mxPoint x="330" y="1160" as="targetPoint" />
            <Array as="points">
              <mxPoint y="710" />
              <mxPoint y="1160" />
              <mxPoint x="330" y="1160" />
            </Array>
          </mxGeometry>
        </mxCell>
        <mxCell id="0NNiQZoct2HIyenWik7f-67" value="i&amp;lt;currentIndex?" style="rhombus;whiteSpace=wrap;html=1;" vertex="1" parent="WIyWlLk6GJQsqaUBKTNV-1">
          <mxGeometry x="-180" y="670" width="80" height="80" as="geometry" />
        </mxCell>
        <mxCell id="0NNiQZoct2HIyenWik7f-71" style="edgeStyle=orthogonalEdgeStyle;rounded=0;orthogonalLoop=1;jettySize=auto;html=1;exitX=0.5;exitY=1;exitDx=0;exitDy=0;" edge="1" parent="WIyWlLk6GJQsqaUBKTNV-1" source="0NNiQZoct2HIyenWik7f-70">
          <mxGeometry relative="1" as="geometry">
            <mxPoint x="-150" y="910" as="targetPoint" />
          </mxGeometry>
        </mxCell>
        <mxCell id="0NNiQZoct2HIyenWik7f-70" value="in ra gia tri phan tu" style="shape=parallelogram;perimeter=parallelogramPerimeter;whiteSpace=wrap;html=1;fixedSize=1;" vertex="1" parent="WIyWlLk6GJQsqaUBKTNV-1">
          <mxGeometry x="-210" y="800" width="120" height="60" as="geometry" />
        </mxCell>
        <mxCell id="0NNiQZoct2HIyenWik7f-73" style="edgeStyle=orthogonalEdgeStyle;rounded=0;orthogonalLoop=1;jettySize=auto;html=1;exitX=0;exitY=0.5;exitDx=0;exitDy=0;entryX=0;entryY=0.5;entryDx=0;entryDy=0;" edge="1" parent="WIyWlLk6GJQsqaUBKTNV-1" source="0NNiQZoct2HIyenWik7f-72" target="0NNiQZoct2HIyenWik7f-67">
          <mxGeometry relative="1" as="geometry" />
        </mxCell>
        <mxCell id="0NNiQZoct2HIyenWik7f-72" value="i++" style="rounded=0;whiteSpace=wrap;html=1;" vertex="1" parent="WIyWlLk6GJQsqaUBKTNV-1">
          <mxGeometry x="-210" y="910" width="120" height="60" as="geometry" />
        </mxCell>
        <mxCell id="0NNiQZoct2HIyenWik7f-75" value="fasle" style="text;html=1;align=center;verticalAlign=middle;resizable=0;points=[];autosize=1;strokeColor=none;fillColor=none;" vertex="1" parent="WIyWlLk6GJQsqaUBKTNV-1">
          <mxGeometry x="-105" y="688" width="50" height="30" as="geometry" />
        </mxCell>
        <mxCell id="0NNiQZoct2HIyenWik7f-76" value="true" style="text;html=1;align=center;verticalAlign=middle;resizable=0;points=[];autosize=1;strokeColor=none;fillColor=none;" vertex="1" parent="WIyWlLk6GJQsqaUBKTNV-1">
          <mxGeometry x="-130" y="548" width="40" height="30" as="geometry" />
        </mxCell>
        <mxCell id="0NNiQZoct2HIyenWik7f-81" style="edgeStyle=orthogonalEdgeStyle;rounded=0;orthogonalLoop=1;jettySize=auto;html=1;exitX=0.5;exitY=1;exitDx=0;exitDy=0;entryX=0.5;entryY=0;entryDx=0;entryDy=0;" edge="1" parent="WIyWlLk6GJQsqaUBKTNV-1" source="0NNiQZoct2HIyenWik7f-78" target="0NNiQZoct2HIyenWik7f-80">
          <mxGeometry relative="1" as="geometry" />
        </mxCell>
        <mxCell id="0NNiQZoct2HIyenWik7f-92" style="edgeStyle=orthogonalEdgeStyle;rounded=0;orthogonalLoop=1;jettySize=auto;html=1;exitX=0;exitY=0.5;exitDx=0;exitDy=0;" edge="1" parent="WIyWlLk6GJQsqaUBKTNV-1" source="0NNiQZoct2HIyenWik7f-78">
          <mxGeometry relative="1" as="geometry">
            <mxPoint x="-720" y="530" as="targetPoint" />
          </mxGeometry>
        </mxCell>
        <mxCell id="0NNiQZoct2HIyenWik7f-78" value="choice == 3?" style="rhombus;whiteSpace=wrap;html=1;" vertex="1" parent="WIyWlLk6GJQsqaUBKTNV-1">
          <mxGeometry x="-493" y="490" width="80" height="80" as="geometry" />
        </mxCell>
        <mxCell id="0NNiQZoct2HIyenWik7f-83" style="edgeStyle=orthogonalEdgeStyle;rounded=0;orthogonalLoop=1;jettySize=auto;html=1;exitX=0.5;exitY=1;exitDx=0;exitDy=0;" edge="1" parent="WIyWlLk6GJQsqaUBKTNV-1" source="0NNiQZoct2HIyenWik7f-79">
          <mxGeometry relative="1" as="geometry">
            <mxPoint x="-453" y="800" as="targetPoint" />
          </mxGeometry>
        </mxCell>
        <mxCell id="0NNiQZoct2HIyenWik7f-88" style="edgeStyle=orthogonalEdgeStyle;rounded=0;orthogonalLoop=1;jettySize=auto;html=1;exitX=1;exitY=0.5;exitDx=0;exitDy=0;" edge="1" parent="WIyWlLk6GJQsqaUBKTNV-1" source="0NNiQZoct2HIyenWik7f-79">
          <mxGeometry relative="1" as="geometry">
            <mxPoint x="-360" y="1010" as="targetPoint" />
          </mxGeometry>
        </mxCell>
        <mxCell id="0NNiQZoct2HIyenWik7f-79" value="i&amp;lt;currentIndex?" style="rhombus;whiteSpace=wrap;html=1;" vertex="1" parent="WIyWlLk6GJQsqaUBKTNV-1">
          <mxGeometry x="-493" y="680" width="80" height="80" as="geometry" />
        </mxCell>
        <mxCell id="0NNiQZoct2HIyenWik7f-82" style="edgeStyle=orthogonalEdgeStyle;rounded=0;orthogonalLoop=1;jettySize=auto;html=1;exitX=0.5;exitY=1;exitDx=0;exitDy=0;entryX=0.5;entryY=0;entryDx=0;entryDy=0;" edge="1" parent="WIyWlLk6GJQsqaUBKTNV-1" source="0NNiQZoct2HIyenWik7f-80" target="0NNiQZoct2HIyenWik7f-79">
          <mxGeometry relative="1" as="geometry" />
        </mxCell>
        <mxCell id="0NNiQZoct2HIyenWik7f-80" value="i=0" style="rounded=0;whiteSpace=wrap;html=1;" vertex="1" parent="WIyWlLk6GJQsqaUBKTNV-1">
          <mxGeometry x="-513" y="590" width="120" height="60" as="geometry" />
        </mxCell>
        <mxCell id="0NNiQZoct2HIyenWik7f-85" style="edgeStyle=orthogonalEdgeStyle;rounded=0;orthogonalLoop=1;jettySize=auto;html=1;exitX=0.5;exitY=1;exitDx=0;exitDy=0;" edge="1" parent="WIyWlLk6GJQsqaUBKTNV-1" source="0NNiQZoct2HIyenWik7f-84">
          <mxGeometry relative="1" as="geometry">
            <mxPoint x="-453" y="910" as="targetPoint" />
          </mxGeometry>
        </mxCell>
        <mxCell id="0NNiQZoct2HIyenWik7f-84" value="arr2[i] = arr[i]" style="rounded=0;whiteSpace=wrap;html=1;" vertex="1" parent="WIyWlLk6GJQsqaUBKTNV-1">
          <mxGeometry x="-513" y="800" width="120" height="60" as="geometry" />
        </mxCell>
        <mxCell id="0NNiQZoct2HIyenWik7f-87" style="edgeStyle=orthogonalEdgeStyle;rounded=0;orthogonalLoop=1;jettySize=auto;html=1;exitX=0;exitY=0.5;exitDx=0;exitDy=0;entryX=0;entryY=0.5;entryDx=0;entryDy=0;" edge="1" parent="WIyWlLk6GJQsqaUBKTNV-1" source="0NNiQZoct2HIyenWik7f-86" target="0NNiQZoct2HIyenWik7f-79">
          <mxGeometry relative="1" as="geometry" />
        </mxCell>
        <mxCell id="0NNiQZoct2HIyenWik7f-86" value="i++" style="rounded=0;whiteSpace=wrap;html=1;" vertex="1" parent="WIyWlLk6GJQsqaUBKTNV-1">
          <mxGeometry x="-513" y="910" width="120" height="60" as="geometry" />
        </mxCell>
        <mxCell id="0NNiQZoct2HIyenWik7f-91" style="edgeStyle=orthogonalEdgeStyle;rounded=0;orthogonalLoop=1;jettySize=auto;html=1;exitX=0.5;exitY=1;exitDx=0;exitDy=0;" edge="1" parent="WIyWlLk6GJQsqaUBKTNV-1" source="0NNiQZoct2HIyenWik7f-90">
          <mxGeometry relative="1" as="geometry">
            <mxPoint y="1160" as="targetPoint" />
            <Array as="points">
              <mxPoint x="-360" y="1160" />
            </Array>
          </mxGeometry>
        </mxCell>
        <mxCell id="0NNiQZoct2HIyenWik7f-90" value="mang sa sao chep&lt;br&gt;arr2[]" style="shape=parallelogram;perimeter=parallelogramPerimeter;whiteSpace=wrap;html=1;fixedSize=1;" vertex="1" parent="WIyWlLk6GJQsqaUBKTNV-1">
          <mxGeometry x="-420" y="1010" width="120" height="60" as="geometry" />
        </mxCell>
        <mxCell id="0NNiQZoct2HIyenWik7f-95" style="edgeStyle=orthogonalEdgeStyle;rounded=0;orthogonalLoop=1;jettySize=auto;html=1;exitX=0.5;exitY=1;exitDx=0;exitDy=0;" edge="1" parent="WIyWlLk6GJQsqaUBKTNV-1" source="0NNiQZoct2HIyenWik7f-93" target="0NNiQZoct2HIyenWik7f-94">
          <mxGeometry relative="1" as="geometry" />
        </mxCell>
        <mxCell id="0NNiQZoct2HIyenWik7f-169" style="edgeStyle=orthogonalEdgeStyle;rounded=0;orthogonalLoop=1;jettySize=auto;html=1;exitX=0.5;exitY=0;exitDx=0;exitDy=0;entryX=1;entryY=0.5;entryDx=0;entryDy=0;" edge="1" parent="WIyWlLk6GJQsqaUBKTNV-1" source="0NNiQZoct2HIyenWik7f-93" target="0NNiQZoct2HIyenWik7f-164">
          <mxGeometry relative="1" as="geometry" />
        </mxCell>
        <mxCell id="0NNiQZoct2HIyenWik7f-93" value="choice == 4?" style="rhombus;whiteSpace=wrap;html=1;" vertex="1" parent="WIyWlLk6GJQsqaUBKTNV-1">
          <mxGeometry x="-800" y="490" width="80" height="80" as="geometry" />
        </mxCell>
        <mxCell id="0NNiQZoct2HIyenWik7f-97" style="edgeStyle=orthogonalEdgeStyle;rounded=0;orthogonalLoop=1;jettySize=auto;html=1;exitX=0.5;exitY=1;exitDx=0;exitDy=0;entryX=0.5;entryY=0;entryDx=0;entryDy=0;" edge="1" parent="WIyWlLk6GJQsqaUBKTNV-1" source="0NNiQZoct2HIyenWik7f-94">
          <mxGeometry relative="1" as="geometry">
            <mxPoint x="-760" y="708" as="targetPoint" />
          </mxGeometry>
        </mxCell>
        <mxCell id="0NNiQZoct2HIyenWik7f-94" value="so phan tu muon them n" style="shape=parallelogram;perimeter=parallelogramPerimeter;whiteSpace=wrap;html=1;fixedSize=1;" vertex="1" parent="WIyWlLk6GJQsqaUBKTNV-1">
          <mxGeometry x="-820" y="610" width="120" height="60" as="geometry" />
        </mxCell>
        <mxCell id="0NNiQZoct2HIyenWik7f-100" style="edgeStyle=orthogonalEdgeStyle;rounded=0;orthogonalLoop=1;jettySize=auto;html=1;exitX=0.5;exitY=1;exitDx=0;exitDy=0;entryX=0.5;entryY=0;entryDx=0;entryDy=0;" edge="1" parent="WIyWlLk6GJQsqaUBKTNV-1" source="0NNiQZoct2HIyenWik7f-98" target="0NNiQZoct2HIyenWik7f-99">
          <mxGeometry relative="1" as="geometry" />
        </mxCell>
        <mxCell id="0NNiQZoct2HIyenWik7f-98" value="i=0" style="rounded=0;whiteSpace=wrap;html=1;" vertex="1" parent="WIyWlLk6GJQsqaUBKTNV-1">
          <mxGeometry x="-820" y="710" width="120" height="60" as="geometry" />
        </mxCell>
        <mxCell id="0NNiQZoct2HIyenWik7f-103" value="true" style="edgeStyle=orthogonalEdgeStyle;rounded=0;orthogonalLoop=1;jettySize=auto;html=1;exitX=0.5;exitY=1;exitDx=0;exitDy=0;entryX=0.5;entryY=0;entryDx=0;entryDy=0;" edge="1" parent="WIyWlLk6GJQsqaUBKTNV-1" source="0NNiQZoct2HIyenWik7f-99" target="0NNiQZoct2HIyenWik7f-102">
          <mxGeometry relative="1" as="geometry" />
        </mxCell>
        <mxCell id="0NNiQZoct2HIyenWik7f-107" style="edgeStyle=orthogonalEdgeStyle;rounded=0;orthogonalLoop=1;jettySize=auto;html=1;exitX=0;exitY=0.5;exitDx=0;exitDy=0;" edge="1" parent="WIyWlLk6GJQsqaUBKTNV-1" source="0NNiQZoct2HIyenWik7f-99">
          <mxGeometry relative="1" as="geometry">
            <mxPoint x="-940" y="840" as="targetPoint" />
          </mxGeometry>
        </mxCell>
        <mxCell id="0NNiQZoct2HIyenWik7f-99" value="i&amp;lt;n?" style="rhombus;whiteSpace=wrap;html=1;" vertex="1" parent="WIyWlLk6GJQsqaUBKTNV-1">
          <mxGeometry x="-800" y="800" width="80" height="80" as="geometry" />
        </mxCell>
        <mxCell id="0NNiQZoct2HIyenWik7f-105" style="edgeStyle=orthogonalEdgeStyle;rounded=0;orthogonalLoop=1;jettySize=auto;html=1;exitX=0.5;exitY=1;exitDx=0;exitDy=0;entryX=0.5;entryY=0;entryDx=0;entryDy=0;" edge="1" parent="WIyWlLk6GJQsqaUBKTNV-1" source="0NNiQZoct2HIyenWik7f-102" target="0NNiQZoct2HIyenWik7f-104">
          <mxGeometry relative="1" as="geometry" />
        </mxCell>
        <mxCell id="0NNiQZoct2HIyenWik7f-102" value="nhap gia tri arr1" style="shape=parallelogram;perimeter=parallelogramPerimeter;whiteSpace=wrap;html=1;fixedSize=1;" vertex="1" parent="WIyWlLk6GJQsqaUBKTNV-1">
          <mxGeometry x="-820" y="910" width="120" height="60" as="geometry" />
        </mxCell>
        <mxCell id="0NNiQZoct2HIyenWik7f-106" style="edgeStyle=orthogonalEdgeStyle;rounded=0;orthogonalLoop=1;jettySize=auto;html=1;exitX=1;exitY=0.5;exitDx=0;exitDy=0;entryX=1;entryY=0.5;entryDx=0;entryDy=0;" edge="1" parent="WIyWlLk6GJQsqaUBKTNV-1" source="0NNiQZoct2HIyenWik7f-104" target="0NNiQZoct2HIyenWik7f-99">
          <mxGeometry relative="1" as="geometry" />
        </mxCell>
        <mxCell id="0NNiQZoct2HIyenWik7f-104" value="currentIndex1++&lt;br&gt;i++" style="rounded=0;whiteSpace=wrap;html=1;" vertex="1" parent="WIyWlLk6GJQsqaUBKTNV-1">
          <mxGeometry x="-820" y="1010" width="120" height="60" as="geometry" />
        </mxCell>
        <mxCell id="0NNiQZoct2HIyenWik7f-109" value="true" style="edgeStyle=orthogonalEdgeStyle;rounded=0;orthogonalLoop=1;jettySize=auto;html=1;exitX=0.5;exitY=1;exitDx=0;exitDy=0;" edge="1" parent="WIyWlLk6GJQsqaUBKTNV-1" source="0NNiQZoct2HIyenWik7f-108">
          <mxGeometry relative="1" as="geometry">
            <mxPoint x="-1055" y="930" as="targetPoint" />
          </mxGeometry>
        </mxCell>
        <mxCell id="0NNiQZoct2HIyenWik7f-133" style="edgeStyle=orthogonalEdgeStyle;rounded=0;orthogonalLoop=1;jettySize=auto;html=1;exitX=0;exitY=0.5;exitDx=0;exitDy=0;" edge="1" parent="WIyWlLk6GJQsqaUBKTNV-1" source="0NNiQZoct2HIyenWik7f-108">
          <mxGeometry relative="1" as="geometry">
            <mxPoint x="-1820" y="840" as="targetPoint" />
          </mxGeometry>
        </mxCell>
        <mxCell id="0NNiQZoct2HIyenWik7f-108" value="currentIndex&amp;gt;currentIndex1?" style="rhombus;whiteSpace=wrap;html=1;" vertex="1" parent="WIyWlLk6GJQsqaUBKTNV-1">
          <mxGeometry x="-1170" y="800" width="230" height="80" as="geometry" />
        </mxCell>
        <mxCell id="0NNiQZoct2HIyenWik7f-112" style="edgeStyle=orthogonalEdgeStyle;rounded=0;orthogonalLoop=1;jettySize=auto;html=1;exitX=0.5;exitY=1;exitDx=0;exitDy=0;entryX=0.5;entryY=0;entryDx=0;entryDy=0;" edge="1" parent="WIyWlLk6GJQsqaUBKTNV-1" source="0NNiQZoct2HIyenWik7f-110" target="0NNiQZoct2HIyenWik7f-111">
          <mxGeometry relative="1" as="geometry" />
        </mxCell>
        <mxCell id="0NNiQZoct2HIyenWik7f-110" value="i=0" style="rounded=0;whiteSpace=wrap;html=1;" vertex="1" parent="WIyWlLk6GJQsqaUBKTNV-1">
          <mxGeometry x="-1120" y="930" width="120" height="60" as="geometry" />
        </mxCell>
        <mxCell id="0NNiQZoct2HIyenWik7f-114" value="true" style="edgeStyle=orthogonalEdgeStyle;rounded=0;orthogonalLoop=1;jettySize=auto;html=1;exitX=0.5;exitY=1;exitDx=0;exitDy=0;entryX=0.5;entryY=0;entryDx=0;entryDy=0;" edge="1" parent="WIyWlLk6GJQsqaUBKTNV-1" source="0NNiQZoct2HIyenWik7f-111" target="0NNiQZoct2HIyenWik7f-113">
          <mxGeometry relative="1" as="geometry" />
        </mxCell>
        <mxCell id="0NNiQZoct2HIyenWik7f-131" value="false" style="edgeStyle=orthogonalEdgeStyle;rounded=0;orthogonalLoop=1;jettySize=auto;html=1;exitX=0;exitY=0.5;exitDx=0;exitDy=0;" edge="1" parent="WIyWlLk6GJQsqaUBKTNV-1" source="0NNiQZoct2HIyenWik7f-111">
          <mxGeometry relative="1" as="geometry">
            <mxPoint x="-1470" y="1070" as="targetPoint" />
          </mxGeometry>
        </mxCell>
        <mxCell id="0NNiQZoct2HIyenWik7f-111" value="i&amp;lt;currentIndex?" style="rhombus;whiteSpace=wrap;html=1;" vertex="1" parent="WIyWlLk6GJQsqaUBKTNV-1">
          <mxGeometry x="-1100" y="1030" width="80" height="80" as="geometry" />
        </mxCell>
        <mxCell id="0NNiQZoct2HIyenWik7f-116" style="edgeStyle=orthogonalEdgeStyle;rounded=0;orthogonalLoop=1;jettySize=auto;html=1;exitX=0.5;exitY=1;exitDx=0;exitDy=0;" edge="1" parent="WIyWlLk6GJQsqaUBKTNV-1" source="0NNiQZoct2HIyenWik7f-113" target="0NNiQZoct2HIyenWik7f-115">
          <mxGeometry relative="1" as="geometry" />
        </mxCell>
        <mxCell id="0NNiQZoct2HIyenWik7f-117" value="false" style="edgeStyle=orthogonalEdgeStyle;rounded=0;orthogonalLoop=1;jettySize=auto;html=1;exitX=0;exitY=0.5;exitDx=0;exitDy=0;" edge="1" parent="WIyWlLk6GJQsqaUBKTNV-1" source="0NNiQZoct2HIyenWik7f-113">
          <mxGeometry relative="1" as="geometry">
            <mxPoint x="-1200" y="1190" as="targetPoint" />
          </mxGeometry>
        </mxCell>
        <mxCell id="0NNiQZoct2HIyenWik7f-113" value="i&amp;lt;currentIndex1?" style="rhombus;whiteSpace=wrap;html=1;" vertex="1" parent="WIyWlLk6GJQsqaUBKTNV-1">
          <mxGeometry x="-1100" y="1150" width="80" height="80" as="geometry" />
        </mxCell>
        <mxCell id="0NNiQZoct2HIyenWik7f-126" style="edgeStyle=orthogonalEdgeStyle;rounded=0;orthogonalLoop=1;jettySize=auto;html=1;exitX=0.5;exitY=1;exitDx=0;exitDy=0;" edge="1" parent="WIyWlLk6GJQsqaUBKTNV-1" source="0NNiQZoct2HIyenWik7f-115">
          <mxGeometry relative="1" as="geometry">
            <mxPoint x="-1070" y="1350" as="targetPoint" />
          </mxGeometry>
        </mxCell>
        <mxCell id="0NNiQZoct2HIyenWik7f-115" value="swap = arr[i]&lt;br&gt;arr[i] = arr1[i]&lt;br&gt;arr1[i] = swap" style="rounded=0;whiteSpace=wrap;html=1;" vertex="1" parent="WIyWlLk6GJQsqaUBKTNV-1">
          <mxGeometry x="-1120" y="1270" width="120" height="60" as="geometry" />
        </mxCell>
        <mxCell id="0NNiQZoct2HIyenWik7f-121" style="edgeStyle=orthogonalEdgeStyle;rounded=0;orthogonalLoop=1;jettySize=auto;html=1;exitX=0.5;exitY=1;exitDx=0;exitDy=0;entryX=0.5;entryY=0;entryDx=0;entryDy=0;" edge="1" parent="WIyWlLk6GJQsqaUBKTNV-1" source="0NNiQZoct2HIyenWik7f-118" target="0NNiQZoct2HIyenWik7f-120">
          <mxGeometry relative="1" as="geometry" />
        </mxCell>
        <mxCell id="0NNiQZoct2HIyenWik7f-130" value="false" style="edgeStyle=orthogonalEdgeStyle;rounded=0;orthogonalLoop=1;jettySize=auto;html=1;exitX=0;exitY=0.5;exitDx=0;exitDy=0;" edge="1" parent="WIyWlLk6GJQsqaUBKTNV-1" source="0NNiQZoct2HIyenWik7f-118">
          <mxGeometry relative="1" as="geometry">
            <mxPoint x="-1240" y="1350" as="targetPoint" />
            <Array as="points">
              <mxPoint x="-1390" y="1190" />
            </Array>
          </mxGeometry>
        </mxCell>
        <mxCell id="0NNiQZoct2HIyenWik7f-118" value="i&amp;gt;currentIndex1?" style="rhombus;whiteSpace=wrap;html=1;" vertex="1" parent="WIyWlLk6GJQsqaUBKTNV-1">
          <mxGeometry x="-1280" y="1150" width="80" height="80" as="geometry" />
        </mxCell>
        <mxCell id="0NNiQZoct2HIyenWik7f-122" style="edgeStyle=orthogonalEdgeStyle;rounded=0;orthogonalLoop=1;jettySize=auto;html=1;exitX=0.5;exitY=1;exitDx=0;exitDy=0;entryX=0.5;entryY=1;entryDx=0;entryDy=0;" edge="1" parent="WIyWlLk6GJQsqaUBKTNV-1" source="0NNiQZoct2HIyenWik7f-120" target="0NNiQZoct2HIyenWik7f-124">
          <mxGeometry relative="1" as="geometry">
            <mxPoint x="-1240" y="1380" as="targetPoint" />
          </mxGeometry>
        </mxCell>
        <mxCell id="0NNiQZoct2HIyenWik7f-120" value="arr1[i] = arr[i]&lt;br&gt;arr[i] = &quot;\0&quot;" style="rounded=0;whiteSpace=wrap;html=1;" vertex="1" parent="WIyWlLk6GJQsqaUBKTNV-1">
          <mxGeometry x="-1300" y="1270" width="120" height="60" as="geometry" />
        </mxCell>
        <mxCell id="0NNiQZoct2HIyenWik7f-128" style="edgeStyle=orthogonalEdgeStyle;rounded=0;orthogonalLoop=1;jettySize=auto;html=1;exitX=0.5;exitY=0;exitDx=0;exitDy=0;entryX=1;entryY=0.5;entryDx=0;entryDy=0;" edge="1" parent="WIyWlLk6GJQsqaUBKTNV-1" source="0NNiQZoct2HIyenWik7f-124" target="0NNiQZoct2HIyenWik7f-111">
          <mxGeometry relative="1" as="geometry" />
        </mxCell>
        <mxCell id="0NNiQZoct2HIyenWik7f-124" value="i++" style="rounded=0;whiteSpace=wrap;html=1;" vertex="1" parent="WIyWlLk6GJQsqaUBKTNV-1">
          <mxGeometry x="-930" y="1270" width="120" height="60" as="geometry" />
        </mxCell>
        <mxCell id="0NNiQZoct2HIyenWik7f-155" style="edgeStyle=orthogonalEdgeStyle;rounded=0;orthogonalLoop=1;jettySize=auto;html=1;exitX=0.5;exitY=1;exitDx=0;exitDy=0;" edge="1" parent="WIyWlLk6GJQsqaUBKTNV-1" source="0NNiQZoct2HIyenWik7f-132">
          <mxGeometry relative="1" as="geometry">
            <mxPoint x="-2530" y="1480" as="targetPoint" />
            <Array as="points">
              <mxPoint x="-1570" y="1480" />
            </Array>
          </mxGeometry>
        </mxCell>
        <mxCell id="0NNiQZoct2HIyenWik7f-132" value="swap = currentIndex&lt;br&gt;currentIndex = currentIndex1&lt;br&gt;currentIndex1 = swap" style="rounded=0;whiteSpace=wrap;html=1;" vertex="1" parent="WIyWlLk6GJQsqaUBKTNV-1">
          <mxGeometry x="-1680" y="1040" width="210" height="60" as="geometry" />
        </mxCell>
        <mxCell id="0NNiQZoct2HIyenWik7f-135" style="edgeStyle=orthogonalEdgeStyle;rounded=0;orthogonalLoop=1;jettySize=auto;html=1;exitX=0.5;exitY=1;exitDx=0;exitDy=0;" edge="1" parent="WIyWlLk6GJQsqaUBKTNV-1" source="0NNiQZoct2HIyenWik7f-134">
          <mxGeometry relative="1" as="geometry">
            <mxPoint x="-1935" y="950" as="targetPoint" />
          </mxGeometry>
        </mxCell>
        <mxCell id="0NNiQZoct2HIyenWik7f-158" style="edgeStyle=orthogonalEdgeStyle;rounded=0;orthogonalLoop=1;jettySize=auto;html=1;exitX=0;exitY=0.5;exitDx=0;exitDy=0;" edge="1" parent="WIyWlLk6GJQsqaUBKTNV-1" source="0NNiQZoct2HIyenWik7f-134">
          <mxGeometry relative="1" as="geometry">
            <mxPoint x="-2580" y="1543.0000305175781" as="targetPoint" />
            <Array as="points">
              <mxPoint x="-2730" y="840" />
            </Array>
          </mxGeometry>
        </mxCell>
        <mxCell id="0NNiQZoct2HIyenWik7f-134" value="currentIndex&amp;lt;currentIndex1?" style="rhombus;whiteSpace=wrap;html=1;" vertex="1" parent="WIyWlLk6GJQsqaUBKTNV-1">
          <mxGeometry x="-2050" y="800" width="230" height="80" as="geometry" />
        </mxCell>
        <mxCell id="0NNiQZoct2HIyenWik7f-136" style="edgeStyle=orthogonalEdgeStyle;rounded=0;orthogonalLoop=1;jettySize=auto;html=1;exitX=0.5;exitY=1;exitDx=0;exitDy=0;entryX=0.5;entryY=0;entryDx=0;entryDy=0;" edge="1" parent="WIyWlLk6GJQsqaUBKTNV-1" source="0NNiQZoct2HIyenWik7f-137" target="0NNiQZoct2HIyenWik7f-140">
          <mxGeometry relative="1" as="geometry" />
        </mxCell>
        <mxCell id="0NNiQZoct2HIyenWik7f-137" value="i=0" style="rounded=0;whiteSpace=wrap;html=1;" vertex="1" parent="WIyWlLk6GJQsqaUBKTNV-1">
          <mxGeometry x="-2000" y="950" width="120" height="60" as="geometry" />
        </mxCell>
        <mxCell id="0NNiQZoct2HIyenWik7f-138" value="true" style="edgeStyle=orthogonalEdgeStyle;rounded=0;orthogonalLoop=1;jettySize=auto;html=1;exitX=0.5;exitY=1;exitDx=0;exitDy=0;entryX=0.5;entryY=0;entryDx=0;entryDy=0;" edge="1" parent="WIyWlLk6GJQsqaUBKTNV-1" source="0NNiQZoct2HIyenWik7f-140" target="0NNiQZoct2HIyenWik7f-143">
          <mxGeometry relative="1" as="geometry" />
        </mxCell>
        <mxCell id="0NNiQZoct2HIyenWik7f-139" value="false" style="edgeStyle=orthogonalEdgeStyle;rounded=0;orthogonalLoop=1;jettySize=auto;html=1;exitX=0;exitY=0.5;exitDx=0;exitDy=0;" edge="1" parent="WIyWlLk6GJQsqaUBKTNV-1" source="0NNiQZoct2HIyenWik7f-140">
          <mxGeometry relative="1" as="geometry">
            <mxPoint x="-2350" y="1090" as="targetPoint" />
          </mxGeometry>
        </mxCell>
        <mxCell id="0NNiQZoct2HIyenWik7f-140" value="i&amp;lt;currentIndex1?" style="rhombus;whiteSpace=wrap;html=1;" vertex="1" parent="WIyWlLk6GJQsqaUBKTNV-1">
          <mxGeometry x="-1980" y="1050" width="80" height="80" as="geometry" />
        </mxCell>
        <mxCell id="0NNiQZoct2HIyenWik7f-141" style="edgeStyle=orthogonalEdgeStyle;rounded=0;orthogonalLoop=1;jettySize=auto;html=1;exitX=0.5;exitY=1;exitDx=0;exitDy=0;" edge="1" parent="WIyWlLk6GJQsqaUBKTNV-1" source="0NNiQZoct2HIyenWik7f-143" target="0NNiQZoct2HIyenWik7f-145">
          <mxGeometry relative="1" as="geometry" />
        </mxCell>
        <mxCell id="0NNiQZoct2HIyenWik7f-142" value="false" style="edgeStyle=orthogonalEdgeStyle;rounded=0;orthogonalLoop=1;jettySize=auto;html=1;exitX=0;exitY=0.5;exitDx=0;exitDy=0;" edge="1" parent="WIyWlLk6GJQsqaUBKTNV-1" source="0NNiQZoct2HIyenWik7f-143">
          <mxGeometry relative="1" as="geometry">
            <mxPoint x="-2080" y="1210" as="targetPoint" />
          </mxGeometry>
        </mxCell>
        <mxCell id="0NNiQZoct2HIyenWik7f-143" value="i&amp;lt;currentIndex?" style="rhombus;whiteSpace=wrap;html=1;" vertex="1" parent="WIyWlLk6GJQsqaUBKTNV-1">
          <mxGeometry x="-1980" y="1170" width="80" height="80" as="geometry" />
        </mxCell>
        <mxCell id="0NNiQZoct2HIyenWik7f-144" style="edgeStyle=orthogonalEdgeStyle;rounded=0;orthogonalLoop=1;jettySize=auto;html=1;exitX=0.5;exitY=1;exitDx=0;exitDy=0;" edge="1" parent="WIyWlLk6GJQsqaUBKTNV-1" source="0NNiQZoct2HIyenWik7f-145">
          <mxGeometry relative="1" as="geometry">
            <mxPoint x="-1950" y="1370" as="targetPoint" />
          </mxGeometry>
        </mxCell>
        <mxCell id="0NNiQZoct2HIyenWik7f-145" value="swap = arr[i]&lt;br&gt;arr[i] = arr1[i]&lt;br&gt;arr1[i] = swap" style="rounded=0;whiteSpace=wrap;html=1;" vertex="1" parent="WIyWlLk6GJQsqaUBKTNV-1">
          <mxGeometry x="-2000" y="1290" width="120" height="60" as="geometry" />
        </mxCell>
        <mxCell id="0NNiQZoct2HIyenWik7f-146" style="edgeStyle=orthogonalEdgeStyle;rounded=0;orthogonalLoop=1;jettySize=auto;html=1;exitX=0.5;exitY=1;exitDx=0;exitDy=0;entryX=0.5;entryY=0;entryDx=0;entryDy=0;" edge="1" parent="WIyWlLk6GJQsqaUBKTNV-1" source="0NNiQZoct2HIyenWik7f-148" target="0NNiQZoct2HIyenWik7f-150">
          <mxGeometry relative="1" as="geometry" />
        </mxCell>
        <mxCell id="0NNiQZoct2HIyenWik7f-147" value="false" style="edgeStyle=orthogonalEdgeStyle;rounded=0;orthogonalLoop=1;jettySize=auto;html=1;exitX=0;exitY=0.5;exitDx=0;exitDy=0;" edge="1" parent="WIyWlLk6GJQsqaUBKTNV-1" source="0NNiQZoct2HIyenWik7f-148">
          <mxGeometry relative="1" as="geometry">
            <mxPoint x="-2120" y="1370" as="targetPoint" />
            <Array as="points">
              <mxPoint x="-2270" y="1210" />
            </Array>
          </mxGeometry>
        </mxCell>
        <mxCell id="0NNiQZoct2HIyenWik7f-148" value="i&amp;gt;currentIndex?" style="rhombus;whiteSpace=wrap;html=1;" vertex="1" parent="WIyWlLk6GJQsqaUBKTNV-1">
          <mxGeometry x="-2160" y="1170" width="80" height="80" as="geometry" />
        </mxCell>
        <mxCell id="0NNiQZoct2HIyenWik7f-149" style="edgeStyle=orthogonalEdgeStyle;rounded=0;orthogonalLoop=1;jettySize=auto;html=1;exitX=0.5;exitY=1;exitDx=0;exitDy=0;entryX=0.5;entryY=1;entryDx=0;entryDy=0;" edge="1" parent="WIyWlLk6GJQsqaUBKTNV-1" source="0NNiQZoct2HIyenWik7f-150" target="0NNiQZoct2HIyenWik7f-152">
          <mxGeometry relative="1" as="geometry">
            <mxPoint x="-2120" y="1400" as="targetPoint" />
          </mxGeometry>
        </mxCell>
        <mxCell id="0NNiQZoct2HIyenWik7f-150" value="arr[i] = arr1[i]&lt;br&gt;arr1[i] = &quot;\0&quot;" style="rounded=0;whiteSpace=wrap;html=1;" vertex="1" parent="WIyWlLk6GJQsqaUBKTNV-1">
          <mxGeometry x="-2180" y="1290" width="120" height="60" as="geometry" />
        </mxCell>
        <mxCell id="0NNiQZoct2HIyenWik7f-151" style="edgeStyle=orthogonalEdgeStyle;rounded=0;orthogonalLoop=1;jettySize=auto;html=1;exitX=0.5;exitY=0;exitDx=0;exitDy=0;entryX=1;entryY=0.5;entryDx=0;entryDy=0;" edge="1" parent="WIyWlLk6GJQsqaUBKTNV-1" source="0NNiQZoct2HIyenWik7f-152" target="0NNiQZoct2HIyenWik7f-140">
          <mxGeometry relative="1" as="geometry" />
        </mxCell>
        <mxCell id="0NNiQZoct2HIyenWik7f-152" value="i++" style="rounded=0;whiteSpace=wrap;html=1;" vertex="1" parent="WIyWlLk6GJQsqaUBKTNV-1">
          <mxGeometry x="-1810" y="1290" width="120" height="60" as="geometry" />
        </mxCell>
        <mxCell id="0NNiQZoct2HIyenWik7f-154" style="edgeStyle=orthogonalEdgeStyle;rounded=0;orthogonalLoop=1;jettySize=auto;html=1;exitX=0.5;exitY=1;exitDx=0;exitDy=0;" edge="1" parent="WIyWlLk6GJQsqaUBKTNV-1" source="0NNiQZoct2HIyenWik7f-153">
          <mxGeometry relative="1" as="geometry">
            <mxPoint x="-2455" y="1480" as="targetPoint" />
          </mxGeometry>
        </mxCell>
        <mxCell id="0NNiQZoct2HIyenWik7f-153" value="swap = currentIndex&lt;br&gt;currentIndex = currentIndex1&lt;br&gt;currentIndex1 = swap" style="rounded=0;whiteSpace=wrap;html=1;" vertex="1" parent="WIyWlLk6GJQsqaUBKTNV-1">
          <mxGeometry x="-2560" y="1060" width="210" height="60" as="geometry" />
        </mxCell>
        <mxCell id="0NNiQZoct2HIyenWik7f-157" style="edgeStyle=orthogonalEdgeStyle;rounded=0;orthogonalLoop=1;jettySize=auto;html=1;exitX=0.5;exitY=1;exitDx=0;exitDy=0;" edge="1" parent="WIyWlLk6GJQsqaUBKTNV-1" source="0NNiQZoct2HIyenWik7f-156">
          <mxGeometry relative="1" as="geometry">
            <mxPoint x="520" y="1170" as="targetPoint" />
            <Array as="points">
              <mxPoint x="-2579" y="1540" />
              <mxPoint x="-2579" y="1540" />
            </Array>
          </mxGeometry>
        </mxCell>
        <mxCell id="0NNiQZoct2HIyenWik7f-156" value="in mang arr[]" style="shape=parallelogram;perimeter=parallelogramPerimeter;whiteSpace=wrap;html=1;fixedSize=1;" vertex="1" parent="WIyWlLk6GJQsqaUBKTNV-1">
          <mxGeometry x="-2640" y="1450" width="120" height="60" as="geometry" />
        </mxCell>
        <mxCell id="0NNiQZoct2HIyenWik7f-160" value="false" style="text;html=1;align=center;verticalAlign=middle;resizable=0;points=[];autosize=1;strokeColor=none;fillColor=none;" vertex="1" parent="WIyWlLk6GJQsqaUBKTNV-1">
          <mxGeometry x="-2155" y="808" width="50" height="30" as="geometry" />
        </mxCell>
        <mxCell id="0NNiQZoct2HIyenWik7f-161" value="fa;se" style="text;html=1;align=center;verticalAlign=middle;resizable=0;points=[];autosize=1;strokeColor=none;fillColor=none;" vertex="1" parent="WIyWlLk6GJQsqaUBKTNV-1">
          <mxGeometry x="-1275" y="808" width="50" height="30" as="geometry" />
        </mxCell>
        <mxCell id="0NNiQZoct2HIyenWik7f-162" value="false" style="text;html=1;align=center;verticalAlign=middle;resizable=0;points=[];autosize=1;strokeColor=none;fillColor=none;" vertex="1" parent="WIyWlLk6GJQsqaUBKTNV-1">
          <mxGeometry x="-895" y="808" width="50" height="30" as="geometry" />
        </mxCell>
        <mxCell id="0NNiQZoct2HIyenWik7f-170" style="edgeStyle=orthogonalEdgeStyle;rounded=0;orthogonalLoop=1;jettySize=auto;html=1;exitX=0.5;exitY=1;exitDx=0;exitDy=0;entryX=0.5;entryY=0;entryDx=0;entryDy=0;" edge="1" parent="WIyWlLk6GJQsqaUBKTNV-1" source="0NNiQZoct2HIyenWik7f-164" target="0NNiQZoct2HIyenWik7f-165">
          <mxGeometry relative="1" as="geometry" />
        </mxCell>
        <mxCell id="0NNiQZoct2HIyenWik7f-172" style="edgeStyle=orthogonalEdgeStyle;rounded=0;orthogonalLoop=1;jettySize=auto;html=1;exitX=0;exitY=0.5;exitDx=0;exitDy=0;" edge="1" parent="WIyWlLk6GJQsqaUBKTNV-1" source="0NNiQZoct2HIyenWik7f-164">
          <mxGeometry relative="1" as="geometry">
            <mxPoint x="-1220" y="238.25" as="targetPoint" />
          </mxGeometry>
        </mxCell>
        <mxCell id="0NNiQZoct2HIyenWik7f-164" value="choice==5?" style="rhombus;whiteSpace=wrap;html=1;" vertex="1" parent="WIyWlLk6GJQsqaUBKTNV-1">
          <mxGeometry x="-1020" y="198" width="80" height="80" as="geometry" />
        </mxCell>
        <mxCell id="0NNiQZoct2HIyenWik7f-171" style="edgeStyle=orthogonalEdgeStyle;rounded=0;orthogonalLoop=1;jettySize=auto;html=1;exitX=0.5;exitY=1;exitDx=0;exitDy=0;entryX=0.5;entryY=0;entryDx=0;entryDy=0;" edge="1" parent="WIyWlLk6GJQsqaUBKTNV-1" source="0NNiQZoct2HIyenWik7f-165" target="0NNiQZoct2HIyenWik7f-167">
          <mxGeometry relative="1" as="geometry" />
        </mxCell>
        <mxCell id="0NNiQZoct2HIyenWik7f-165" value="reverseArr(arr,currentIndex)" style="rounded=0;whiteSpace=wrap;html=1;" vertex="1" parent="WIyWlLk6GJQsqaUBKTNV-1">
          <mxGeometry x="-1070" y="328" width="180" height="60" as="geometry" />
        </mxCell>
        <mxCell id="0NNiQZoct2HIyenWik7f-192" style="edgeStyle=orthogonalEdgeStyle;rounded=0;orthogonalLoop=1;jettySize=auto;html=1;exitX=0.5;exitY=1;exitDx=0;exitDy=0;" edge="1" parent="WIyWlLk6GJQsqaUBKTNV-1" source="0NNiQZoct2HIyenWik7f-167">
          <mxGeometry relative="1" as="geometry">
            <mxPoint x="-2720" y="630" as="targetPoint" />
            <Array as="points">
              <mxPoint x="-980" y="630" />
            </Array>
          </mxGeometry>
        </mxCell>
        <mxCell id="0NNiQZoct2HIyenWik7f-167" value="mang arr[] dao nguoc" style="shape=parallelogram;perimeter=parallelogramPerimeter;whiteSpace=wrap;html=1;fixedSize=1;" vertex="1" parent="WIyWlLk6GJQsqaUBKTNV-1">
          <mxGeometry x="-1040" y="430" width="120" height="60" as="geometry" />
        </mxCell>
        <mxCell id="0NNiQZoct2HIyenWik7f-175" style="edgeStyle=orthogonalEdgeStyle;rounded=0;orthogonalLoop=1;jettySize=auto;html=1;exitX=0.5;exitY=1;exitDx=0;exitDy=0;" edge="1" parent="WIyWlLk6GJQsqaUBKTNV-1" source="0NNiQZoct2HIyenWik7f-173">
          <mxGeometry relative="1" as="geometry">
            <mxPoint x="-1260.5" y="300" as="targetPoint" />
          </mxGeometry>
        </mxCell>
        <mxCell id="0NNiQZoct2HIyenWik7f-180" style="edgeStyle=orthogonalEdgeStyle;rounded=0;orthogonalLoop=1;jettySize=auto;html=1;exitX=0;exitY=0.5;exitDx=0;exitDy=0;" edge="1" parent="WIyWlLk6GJQsqaUBKTNV-1" source="0NNiQZoct2HIyenWik7f-173">
          <mxGeometry relative="1" as="geometry">
            <mxPoint x="-1430" y="238.25" as="targetPoint" />
          </mxGeometry>
        </mxCell>
        <mxCell id="0NNiQZoct2HIyenWik7f-173" value="choice==6?" style="rhombus;whiteSpace=wrap;html=1;" vertex="1" parent="WIyWlLk6GJQsqaUBKTNV-1">
          <mxGeometry x="-1300" y="198" width="80" height="80" as="geometry" />
        </mxCell>
        <mxCell id="0NNiQZoct2HIyenWik7f-177" style="edgeStyle=orthogonalEdgeStyle;rounded=0;orthogonalLoop=1;jettySize=auto;html=1;exitX=0.5;exitY=1;exitDx=0;exitDy=0;entryX=0.5;entryY=0;entryDx=0;entryDy=0;" edge="1" parent="WIyWlLk6GJQsqaUBKTNV-1" source="0NNiQZoct2HIyenWik7f-174" target="0NNiQZoct2HIyenWik7f-176">
          <mxGeometry relative="1" as="geometry" />
        </mxCell>
        <mxCell id="0NNiQZoct2HIyenWik7f-174" value="findValue" style="shape=parallelogram;perimeter=parallelogramPerimeter;whiteSpace=wrap;html=1;fixedSize=1;" vertex="1" parent="WIyWlLk6GJQsqaUBKTNV-1">
          <mxGeometry x="-1330" y="303" width="120" height="60" as="geometry" />
        </mxCell>
        <mxCell id="0NNiQZoct2HIyenWik7f-178" style="edgeStyle=orthogonalEdgeStyle;rounded=0;orthogonalLoop=1;jettySize=auto;html=1;exitX=0.5;exitY=1;exitDx=0;exitDy=0;" edge="1" parent="WIyWlLk6GJQsqaUBKTNV-1" source="0NNiQZoct2HIyenWik7f-176">
          <mxGeometry relative="1" as="geometry">
            <mxPoint x="-1270.5" y="500" as="targetPoint" />
          </mxGeometry>
        </mxCell>
        <mxCell id="0NNiQZoct2HIyenWik7f-176" value="searchValue(arr,currentIndex,findValue)" style="rounded=0;whiteSpace=wrap;html=1;" vertex="1" parent="WIyWlLk6GJQsqaUBKTNV-1">
          <mxGeometry x="-1330" y="400" width="120" height="60" as="geometry" />
        </mxCell>
        <mxCell id="0NNiQZoct2HIyenWik7f-191" style="edgeStyle=orthogonalEdgeStyle;rounded=0;orthogonalLoop=1;jettySize=auto;html=1;exitX=0;exitY=0.5;exitDx=0;exitDy=0;" edge="1" parent="WIyWlLk6GJQsqaUBKTNV-1" source="0NNiQZoct2HIyenWik7f-179">
          <mxGeometry relative="1" as="geometry">
            <mxPoint x="-2737.1110026041665" y="530.7777777777778" as="targetPoint" />
          </mxGeometry>
        </mxCell>
        <mxCell id="0NNiQZoct2HIyenWik7f-179" value="vi tri phan tu trong mang ( i )" style="shape=parallelogram;perimeter=parallelogramPerimeter;whiteSpace=wrap;html=1;fixedSize=1;" vertex="1" parent="WIyWlLk6GJQsqaUBKTNV-1">
          <mxGeometry x="-1330" y="500" width="120" height="60" as="geometry" />
        </mxCell>
        <mxCell id="0NNiQZoct2HIyenWik7f-182" style="edgeStyle=orthogonalEdgeStyle;rounded=0;orthogonalLoop=1;jettySize=auto;html=1;exitX=0.5;exitY=0;exitDx=0;exitDy=0;" edge="1" parent="WIyWlLk6GJQsqaUBKTNV-1" source="0NNiQZoct2HIyenWik7f-181">
          <mxGeometry relative="1" as="geometry">
            <mxPoint x="-1470.5" y="100.00000000000011" as="targetPoint" />
          </mxGeometry>
        </mxCell>
        <mxCell id="0NNiQZoct2HIyenWik7f-184" style="edgeStyle=orthogonalEdgeStyle;rounded=0;orthogonalLoop=1;jettySize=auto;html=1;exitX=0;exitY=0.5;exitDx=0;exitDy=0;" edge="1" parent="WIyWlLk6GJQsqaUBKTNV-1" source="0NNiQZoct2HIyenWik7f-181">
          <mxGeometry relative="1" as="geometry">
            <mxPoint x="-1620" y="239.5" as="targetPoint" />
          </mxGeometry>
        </mxCell>
        <mxCell id="0NNiQZoct2HIyenWik7f-181" value="choice==7?" style="rhombus;whiteSpace=wrap;html=1;" vertex="1" parent="WIyWlLk6GJQsqaUBKTNV-1">
          <mxGeometry x="-1510" y="200" width="80" height="80" as="geometry" />
        </mxCell>
        <mxCell id="0NNiQZoct2HIyenWik7f-183" value="end" style="ellipse;whiteSpace=wrap;html=1;" vertex="1" parent="WIyWlLk6GJQsqaUBKTNV-1">
          <mxGeometry x="-1530" y="20" width="120" height="80" as="geometry" />
        </mxCell>
        <mxCell id="0NNiQZoct2HIyenWik7f-187" style="edgeStyle=orthogonalEdgeStyle;rounded=0;orthogonalLoop=1;jettySize=auto;html=1;exitX=0.5;exitY=1;exitDx=0;exitDy=0;entryX=0.5;entryY=0;entryDx=0;entryDy=0;" edge="1" parent="WIyWlLk6GJQsqaUBKTNV-1" source="0NNiQZoct2HIyenWik7f-185" target="0NNiQZoct2HIyenWik7f-186">
          <mxGeometry relative="1" as="geometry" />
        </mxCell>
        <mxCell id="0NNiQZoct2HIyenWik7f-185" value="default?" style="rhombus;whiteSpace=wrap;html=1;" vertex="1" parent="WIyWlLk6GJQsqaUBKTNV-1">
          <mxGeometry x="-1700" y="200" width="80" height="80" as="geometry" />
        </mxCell>
        <mxCell id="0NNiQZoct2HIyenWik7f-189" style="edgeStyle=orthogonalEdgeStyle;rounded=0;orthogonalLoop=1;jettySize=auto;html=1;exitX=0;exitY=0.5;exitDx=0;exitDy=0;" edge="1" parent="WIyWlLk6GJQsqaUBKTNV-1" source="0NNiQZoct2HIyenWik7f-186">
          <mxGeometry relative="1" as="geometry">
            <mxPoint x="-2730" y="830" as="targetPoint" />
          </mxGeometry>
        </mxCell>
        <mxCell id="0NNiQZoct2HIyenWik7f-186" value="nhap lai" style="shape=parallelogram;perimeter=parallelogramPerimeter;whiteSpace=wrap;html=1;fixedSize=1;" vertex="1" parent="WIyWlLk6GJQsqaUBKTNV-1">
          <mxGeometry x="-1720" y="318" width="120" height="60" as="geometry" />
        </mxCell>
      </root>
    </mxGraphModel>
  </diagram>
</mxfile>
